<?xml version="1.0" encoding="UTF-8" standalone="no"?>
<!DOCTYPE svg PUBLIC "-//W3C//DTD SVG 1.1//EN"
 "http://www.w3.org/Graphics/SVG/1.1/DTD/svg11.dtd">
<!-- Generated by graphviz version 9.0.0 (0)
 -->
<!-- Title: snakemake_dag Pages: 1 -->
<svg width="194pt" height="188pt"
 viewBox="0.00 0.00 194.25 188.00" xmlns="http://www.w3.org/2000/svg" xmlns:xlink="http://www.w3.org/1999/xlink">
<g id="graph0" class="graph" transform="scale(1 1) rotate(0) translate(4 184)">
<title>snakemake_dag</title>
<polygon fill="white" stroke="none" points="-4,4 -4,-184 190.25,-184 190.25,4 -4,4"/>
<!-- 0 -->
<g id="node1" class="node">
<title>0</title>
<path fill="none" stroke="#56d8a9" stroke-width="2" stroke-dasharray="5,2" d="M72.25,-36C72.25,-36 12,-36 12,-36 6,-36 0,-30 0,-24 0,-24 0,-12 0,-12 0,-6 6,0 12,0 12,0 72.25,0 72.25,0 78.25,0 84.25,-6 84.25,-12 84.25,-12 84.25,-24 84.25,-24 84.25,-30 78.25,-36 72.25,-36"/>
<text text-anchor="middle" x="42.12" y="-14.12" font-family="sans" font-size="10.00">samtools_index</text>
</g>
<!-- 1 -->
<g id="node2" class="node">
<title>1</title>
<path fill="none" stroke="#d85656" stroke-width="2" stroke-dasharray="5,2" d="M68.88,-108C68.88,-108 15.38,-108 15.38,-108 9.38,-108 3.38,-102 3.38,-96 3.38,-96 3.38,-84 3.38,-84 3.38,-78 9.38,-72 15.38,-72 15.38,-72 68.88,-72 68.88,-72 74.88,-72 80.88,-78 80.88,-84 80.88,-84 80.88,-96 80.88,-96 80.88,-102 74.88,-108 68.88,-108"/>
<text text-anchor="middle" x="42.12" y="-86.12" font-family="sans" font-size="10.00">samtools_sort</text>
</g>
<!-- 1&#45;&gt;0 -->
<g id="edge1" class="edge">
<title>1&#45;&gt;0</title>
<path fill="none" stroke="grey" stroke-width="2" d="M42.12,-71.34C42.12,-64.75 42.12,-57.08 42.12,-49.67"/>
<polygon fill="grey" stroke="grey" stroke-width="2" points="45.63,-49.93 42.13,-39.93 38.63,-49.93 45.63,-49.93"/>
</g>
<!-- 2 -->
<g id="node3" class="node">
<title>2</title>
<path fill="none" stroke="#afd856" stroke-width="2" stroke-dasharray="5,2" d="M59.88,-180C59.88,-180 24.38,-180 24.38,-180 18.38,-180 12.37,-174 12.37,-168 12.37,-168 12.37,-156 12.37,-156 12.37,-150 18.37,-144 24.37,-144 24.37,-144 59.88,-144 59.88,-144 65.88,-144 71.88,-150 71.88,-156 71.88,-156 71.88,-168 71.88,-168 71.88,-174 65.88,-180 59.88,-180"/>
<text text-anchor="middle" x="42.12" y="-163.75" font-family="sans" font-size="10.00">bwa_map</text>
<text text-anchor="middle" x="42.12" y="-152.5" font-family="sans" font-size="10.00">sample: A</text>
</g>
<!-- 2&#45;&gt;1 -->
<g id="edge2" class="edge">
<title>2&#45;&gt;1</title>
<path fill="none" stroke="grey" stroke-width="2" d="M42.12,-143.34C42.12,-136.75 42.12,-129.08 42.12,-121.67"/>
<polygon fill="grey" stroke="grey" stroke-width="2" points="45.63,-121.93 42.13,-111.93 38.63,-121.93 45.63,-121.93"/>
</g>
<!-- 3 -->
<g id="node4" class="node">
<title>3</title>
<path fill="none" stroke="#56d8a9" stroke-width="2" stroke-dasharray="5,2" d="M174.25,-36C174.25,-36 114,-36 114,-36 108,-36 102,-30 102,-24 102,-24 102,-12 102,-12 102,-6 108,0 114,0 114,0 174.25,0 174.25,0 180.25,0 186.25,-6 186.25,-12 186.25,-12 186.25,-24 186.25,-24 186.25,-30 180.25,-36 174.25,-36"/>
<text text-anchor="middle" x="144.12" y="-14.12" font-family="sans" font-size="10.00">samtools_index</text>
</g>
<!-- 4 -->
<g id="node5" class="node">
<title>4</title>
<path fill="none" stroke="#d85656" stroke-width="2" stroke-dasharray="5,2" d="M170.88,-108C170.88,-108 117.38,-108 117.38,-108 111.38,-108 105.38,-102 105.38,-96 105.38,-96 105.38,-84 105.38,-84 105.38,-78 111.38,-72 117.38,-72 117.38,-72 170.88,-72 170.88,-72 176.88,-72 182.88,-78 182.88,-84 182.88,-84 182.88,-96 182.88,-96 182.88,-102 176.88,-108 170.88,-108"/>
<text text-anchor="middle" x="144.12" y="-86.12" font-family="sans" font-size="10.00">samtools_sort</text>
</g>
<!-- 4&#45;&gt;3 -->
<g id="edge3" class="edge">
<title>4&#45;&gt;3</title>
<path fill="none" stroke="grey" stroke-width="2" d="M144.12,-71.34C144.12,-64.75 144.12,-57.08 144.12,-49.67"/>
<polygon fill="grey" stroke="grey" stroke-width="2" points="147.63,-49.93 144.13,-39.93 140.63,-49.93 147.63,-49.93"/>
</g>
<!-- 5 -->
<g id="node6" class="node">
<title>5</title>
<path fill="none" stroke="#afd856" stroke-width="2" stroke-dasharray="5,2" d="M162.25,-180C162.25,-180 126,-180 126,-180 120,-180 114,-174 114,-168 114,-168 114,-156 114,-156 114,-150 120,-144 126,-144 126,-144 162.25,-144 162.25,-144 168.25,-144 174.25,-150 174.25,-156 174.25,-156 174.25,-168 174.25,-168 174.25,-174 168.25,-180 162.25,-180"/>
<text text-anchor="middle" x="144.12" y="-163.75" font-family="sans" font-size="10.00">bwa_map</text>
<text text-anchor="middle" x="144.12" y="-152.5" font-family="sans" font-size="10.00">sample: B</text>
</g>
<!-- 5&#45;&gt;4 -->
<g id="edge4" class="edge">
<title>5&#45;&gt;4</title>
<path fill="none" stroke="grey" stroke-width="2" d="M144.12,-143.34C144.12,-136.75 144.12,-129.08 144.12,-121.67"/>
<polygon fill="grey" stroke="grey" stroke-width="2" points="147.63,-121.93 144.13,-111.93 140.63,-121.93 147.63,-121.93"/>
</g>
</g>
</svg>
